<?xml version="1.0" encoding="utf-8"?>
<svg width="456" height="456" viewBox="0 0 456 456" version="1.1" xmlns="http://www.w3.org/2000/svg" xmlns:bx="https://boxy-svg.com">
  <defs>
    <bx:grid x="0" y="0" width="123" height="123"/>
  </defs>
  <g transform="matrix(1.5, 0, 0, 1.5, 123, 123)" style="">
    <path class="st0" d="M 0.18 0 L 44.81 0 L 44.81 44.45 L 0.18 44.45 Z M 11.02 33.66 L 33.97 33.66 L 33.97 10.8 L 11.02 10.8 Z"/>
    <path class="st0" d="M 78.06 0 L 122.69 0 L 122.69 44.45 L 78.06 44.45 Z M 88.91 33.66 L 111.86 33.66 L 111.86 10.8 L 88.91 10.8 Z"/>
    <path class="st0" d="M 10.84 88.86 L 33.79 88.86 L 33.79 111.72 L 10.84 111.72 Z M 0 122.51 L 44.63 122.51 L 44.63 78.06 L 0 78.06 Z"/>
    <path class="st0" d="M 55.84 0 L 67.22 0 L 67.22 11.2 L 55.84 11.2 L 55.84 0 Z"/>
    <path class="st0" d="M 0.18 55.48 L 11.56 55.48 L 11.56 66.67999999999999 L 0.18 66.67999999999999 L 0.18 55.48 Z"/>
    <path class="st0" d="M 22.41 55.48 L 33.79 55.48 L 33.79 66.67999999999999 L 22.41 66.67999999999999 L 22.41 55.48 Z"/>
    <path class="st0" d="M 111.31 55.48 L 122.69 55.48 L 122.69 66.67999999999999 L 111.31 66.67999999999999 L 111.31 55.48 Z"/>
    <path class="st0" d="M 55.84 89.09 L 66.86 89.09 L 66.86 77.89 L 56.2 77.89 L 56.2 66.69 L 66.86 66.69 L 66.86 55.489999999999995 L 56.02 55.489999999999995 L 56.02 66.69 L 44.63 66.69 L 44.63 55.489999999999995 L 55.83 55.489999999999995 L 55.83 22.23 L 67.21 22.23 L 67.21 55.480000000000004 L 78.22999999999999 55.480000000000004 L 78.22999999999999 66.68 L 89.07 66.68 L 89.07 55.480000000000004 L 100.44999999999999 55.480000000000004 L 100.44999999999999 66.68 L 89.63 66.68 L 89.63 77.88000000000001 L 78.25 77.88000000000001 L 78.25 99.93 L 67.22 99.93 L 67.22 122.16000000000001 L 55.84 122.16000000000001 L 55.84 89.09 Z"/>
    <path class="st0" d="M 89.63 111.48 L 101.00999999999999 111.48 L 101.00999999999999 122.15 L 89.63 122.15 L 89.61999999999999 122.15 L 78.25 122.15 L 78.25 100.33000000000001 L 89.27 100.33000000000001 L 89.27 89.27 L 100.47999999999999 89.27 L 100.47999999999999 67.22 L 111.85999999999999 67.22 L 111.85999999999999 78.06 L 122.69999999999999 78.06 L 122.69999999999999 89.26 L 111.85999999999999 89.26 L 111.85999999999999 100.46000000000001 L 100.64999999999998 100.46000000000001 L 100.47999999999998 100.46000000000001 L 89.63 100.46000000000001 L 89.63 111.48 Z"/>
    <path class="st0" d="M 111.5 111.5 L 122.88 111.5 L 122.88 122.7 L 111.5 122.7 L 111.5 111.5 Z"/>
  </g>
</svg>
